<svg xmlns="http://www.w3.org/2000/svg" xmlns:xlink="http://www.w3.org/1999/xlink" viewBox="0,0,256,256" width="50px" height="50px"><g fill="#ffffff" fill-rule="nonzero" stroke="none" stroke-width="1" stroke-linecap="butt" stroke-linejoin="miter" stroke-miterlimit="10" stroke-dasharray="" stroke-dashoffset="0" font-family="none" font-weight="none" font-size="none" text-anchor="none" style="mix-blend-mode: normal"><g transform="scale(5.12,5.12)"><path d="M13,4c-4.95852,0 -9,4.04148 -9,9v24c0,4.95852 4.04148,9 9,9h24c4.95852,0 9,-4.04148 9,-9v-24c0,-4.95852 -4.04148,-9 -9,-9zM13,6h24c0.35503,0 0.65944,0.15063 1,0.20117v37.59766c-0.34056,0.05054 -0.64497,0.20117 -1,0.20117h-24c-3.87748,0 -7,-3.12252 -7,-7v-24c0,-3.87748 3.12252,-7 7,-7zM40,6.73047c2.35207,1.12598 4,3.47897 4,6.26953v1h-4zM22,12c-7.16786,0 -13,5.83214 -13,13c0,7.16786 5.83214,13 13,13c7.16786,0 13,-5.83214 13,-13c0,-7.16786 -5.83214,-13 -13,-13zM22,14c6.08698,0 11,4.91302 11,11c0,2.8221 -1.06519,5.38334 -2.80469,7.32813c-2.02551,-2.0565 -4.95552,-3.32812 -8.19531,-3.32812c-3.24107,0 -6.16612,1.27667 -8.19141,3.33398c-1.74226,-1.9454 -2.80859,-4.50938 -2.80859,-7.33398c0,-6.08698 4.91302,-11 11,-11zM40,16h4v8h-4zM22,18c-1.58333,0 -2.89811,0.62976 -3.74805,1.58594c-0.84994,0.95618 -1.25195,2.19184 -1.25195,3.41406c0,1.22222 0.40201,2.45788 1.25195,3.41406c0.84994,0.95618 2.16471,1.58594 3.74805,1.58594c1.58333,0 2.89811,-0.62976 3.74805,-1.58594c0.84994,-0.95618 1.25195,-2.19184 1.25195,-3.41406c0,-1.22222 -0.40201,-2.45788 -1.25195,-3.41406c-0.84994,-0.95618 -2.16471,-1.58594 -3.74805,-1.58594zM22,20c1.08333,0 1.76856,0.37024 2.25195,0.91406c0.48339,0.54382 0.74805,1.30816 0.74805,2.08594c0,0.77778 -0.26465,1.54212 -0.74805,2.08594c-0.48339,0.54382 -1.16862,0.91406 -2.25195,0.91406c-1.08333,0 -1.76856,-0.37024 -2.25195,-0.91406c-0.48339,-0.54382 -0.74805,-1.30816 -0.74805,-2.08594c0,-0.77778 0.26465,-1.54212 0.74805,-2.08594c0.48339,-0.54382 1.16862,-0.91406 2.25195,-0.91406zM40,26h4v8h-4zM22,31c2.69439,0 5.0928,1.05593 6.73047,2.69531c-1.85982,1.44025 -4.18954,2.30469 -6.73047,2.30469c-2.5384,0 -4.8657,-0.86313 -6.72461,-2.30078c1.63766,-1.63856 4.03035,-2.69922 6.72461,-2.69922zM40,36h4v1c0,2.79057 -1.64793,5.14355 -4,6.26953z"></path></g></g></svg>